<svg xmlns="http://www.w3.org/2000/svg" xmlns:xlink="http://www.w3.org/1999/xlink" xmlns:lucid="lucid" width="1148.33" height="1320.17"><g transform="translate(-193.7037037037037 -79.5)" lucid:page-tab-id="0_0"><path d="M600 106a6 6 0 0 1 6-6h388a6 6 0 0 1 6 6v108a6 6 0 0 1-6 6H606a6 6 0 0 1-6-6z" stroke="#000" fill-opacity="0"/><g filter="url(#a)"><path d="M280 857.5a2 2 0 0 1 2-2h84a2 2 0 0 1 2 2v124a2 2 0 0 1-2 2h-84a2 2 0 0 1-2-2z" fill="#fff"/><path d="M336 896.5c2.5 0 4.6-.88 6.36-2.64 1.76-1.75 2.64-3.87 2.64-6.36 0-2.5-.88-4.6-2.64-6.36-1.75-1.76-3.87-2.64-6.36-2.64-2.5 0-4.6.88-6.36 2.64-1.76 1.75-2.64 3.87-2.64 6.36 0 2.5.88 4.6 2.64 6.36 1.75 1.76 3.87 2.64 6.36 2.64zm-24 0c2.5 0 4.6-.88 6.36-2.64 1.76-1.75 2.64-3.87 2.64-6.36 0-2.5-.88-4.6-2.64-6.36-1.75-1.76-3.87-2.64-6.36-2.64-2.5 0-4.6.88-6.36 2.64-1.76 1.75-2.64 3.87-2.64 6.36 0 2.5.88 4.6 2.64 6.36 1.75 1.76 3.87 2.64 6.36 2.64zm0 6c-7 0-21 3.5-21 10.5v7.5h42V913c0-7-14-10.5-21-10.5zm24 0c-.87 0-1.86.06-2.9.15 3.47 2.52 5.9 5.9 5.9 10.35v7.5h18V913c0-7-14-10.5-21-10.5zm0 0" fill="#773adc"/><use xlink:href="#b" transform="matrix(1,0,0,1,280,936.5) translate(17.605451171875 28.05751953125)"/></g><path d="M711.6 167.04v-41.58c0-2.04-1.9-5.46-4.3-5.46h-74.6c-2.4 0-4.7 3.42-4.7 5.46v41.58c-8.4 8.64-8 8.64-8 8.64 0 2.46 2.3 4.32 5.3 4.32h89.4c3 0 5.3-2.04 5.3-4.32l-8.4-8.64zm-34.7 9.36h-15.6c-.8 0-1.6-.36-1.6-.72l1.8-2.82c0-.36.6-.6 1.4-.6h12.4c.6 0 1.2.24 1.2.6l2 2.82c0 .54-.8.72-1.6.72zm31-9.6h-76.2v-40.98c0-.96 1-2.28 2.1-2.28H706c1.1 0 1.9 1.32 1.9 2.28v40.98z" stroke="#000" stroke-opacity="0" fill="#773adc"/><use xlink:href="#c" transform="matrix(1,0,0,1,590,189) translate(48.025 14.4)"/><path d="M841.6 167.04v-41.58c0-2.04-1.9-5.46-4.3-5.46h-74.6c-2.4 0-4.7 3.42-4.7 5.46v41.58c-8.4 8.64-8 8.64-8 8.64 0 2.46 2.3 4.32 5.3 4.32h89.4c3 0 5.3-2.04 5.3-4.32l-8.4-8.64zm-34.7 9.36h-15.6c-.8 0-1.6-.36-1.6-.72l1.8-2.82c0-.36.6-.6 1.4-.6h12.4c.6 0 1.2.24 1.2.6l2 2.82c0 .54-.8.72-1.6.72zm31-9.6h-76.2v-40.98c0-.96 1-2.28 2.1-2.28H836c1.1 0 1.9 1.32 1.9 2.28v40.98z" stroke="#000" stroke-opacity="0" fill="#773adc"/><use xlink:href="#d" transform="matrix(1,0,0,1,720,189) translate(46.525 14.4)"/><path d="M971.6 167.04v-41.58c0-2.04-1.9-5.46-4.3-5.46h-74.6c-2.4 0-4.7 3.42-4.7 5.46v41.58c-8.4 8.64-8 8.64-8 8.64 0 2.46 2.3 4.32 5.3 4.32h89.4c3 0 5.3-2.04 5.3-4.32l-8.4-8.64zm-34.7 9.36h-15.6c-.8 0-1.6-.36-1.6-.72l1.8-2.82c0-.36.6-.6 1.4-.6h12.4c.6 0 1.2.24 1.2.6l2 2.82c0 .54-.8.72-1.6.72zm31-9.6h-76.2v-40.98c0-.96 1-2.28 2.1-2.28H966c1.1 0 1.9 1.32 1.9 2.28v40.98z" stroke="#000" stroke-opacity="0" fill="#773adc"/><use xlink:href="#e" transform="matrix(1,0,0,1,850,189) translate(30.549999999999997 14.4)"/><path d="M1321.53 509.88v60.3l-52 29.82v-59.66l52-30.46z" stroke="#000" stroke-opacity="0" fill="#773adc"/><path d="M1298.55 540.65c7.5-4.1 13-.7 13 7.44-.68 9.33-5.15 17.05-13 22.33-7.5 4.06-13 .7-13-7.44.36-9.42 4.97-17.3 13-22.35z" stroke="#000" stroke-opacity="0" fill="url(#f)"/><path d="M1321.53 509.82l-52 30.54-52-30.54 52-29.82 52 29.82z" stroke="#000" stroke-opacity="0" fill="#b796f9"/><path d="M1269.53 540.34V600l-52-29.83v-60.3l52 30.47z" stroke="#000" stroke-opacity="0" fill="#a67af4"/><use xlink:href="#g" transform="matrix(1,0,0,1,1187.533333333333,609) translate(49.694753086419766 23.288888888888884)"/><path d="M839.6 1320h-47.9c-.93 0-1.7-.8-1.7-1.68v-57.44c0-.96.77-1.76 1.7-1.76h11.07v-17.44c0-.88.77-1.68 1.7-1.68h22.36c.93 0 1.7.8 1.7 1.68v17.44h11.08c.93 0 1.7.8 1.7 1.76v57.44c0 .88-.77 1.68-1.7 1.68zm-46.2-3.44h44.5v-54h-11.07c-.97 0-1.7-.8-1.7-1.68v-17.44h-18.97v17.44c0 .88-.72 1.68-1.7 1.68H793.4z" stroke="#fff" stroke-opacity="0" fill="#773adc"/><path d="M810.76 1246.48h3.4v14.37h-3.4v-14.37zM817.15 1246.48h3.4v14.37h-3.4v-14.37zM802.77 1265.63h3.4v8h-3.4v-8zM802.77 1278.4h3.4v7.98h-3.4v-7.98zM802.77 1291.17h3.4v7.98h-3.4v-7.98zM802.77 1303.93h3.4v9.57h-3.4v-9.57zM796.4 1265.63h3.4v8h-3.4v-8zM796.4 1278.4h3.4v7.98h-3.4v-7.98zM796.4 1291.17h3.4v7.98h-3.4v-7.98zM796.4 1303.93h3.4v9.57h-3.4v-9.57zM810.76 1265.63h3.4v8h-3.4v-8zM810.76 1278.4h3.4v7.98h-3.4v-7.98zM810.76 1291.17h3.4v7.98h-3.4v-7.98zM810.76 1303.93h3.4v9.57h-3.4v-9.57zM817.15 1265.63h3.4v8h-3.4v-8zM817.15 1278.4h3.4v7.98h-3.4v-7.98zM817.15 1291.17h3.4v7.98h-3.4v-7.98zM817.15 1303.93h3.4v9.57h-3.4v-9.57zM825.12 1265.63h3.4v8h-3.4v-8zM825.12 1278.4h3.4v7.98h-3.4v-7.98zM825.12 1291.17h3.4v7.98h-3.4v-7.98zM825.12 1303.93h3.4v9.57h-3.4v-9.57zM831.5 1265.63h3.4v8h-3.4v-8zM831.5 1278.4h3.4v7.98h-3.4v-7.98zM831.5 1291.17h3.4v7.98h-3.4v-7.98zM831.5 1303.93h3.4v9.57h-3.4v-9.57z" stroke="#fff" stroke-opacity="0" fill="#773adc"/><use xlink:href="#h" transform="matrix(1,0,0,1,760,1329) translate(2.3580246913580254 17.77777777777778)"/><use xlink:href="#i" transform="matrix(1,0,0,1,760,1329) translate(103.46913580246914 17.77777777777778)"/><use xlink:href="#j" transform="matrix(1,0,0,1,760,1329) translate(-6.870370370370374 44.44444444444444)"/><path d="M745.65 500h120v120h-120V500z" stroke="#000" stroke-opacity="0" fill="url(#k)"/><path d="M844.95 568.18c.5 0 1 .17 1.4.58.33.33.58.83.58 1.32v9.65c0 .57-.25 1.07-.58 1.4-.4.33-.9.57-1.4.5l-2.48-.17c-.5 1.48-1.07 2.88-1.73 4.2l1.8 1.65c.43.34.68.83.68 1.4 0 .5-.17 1-.58 1.33l-6.86 6.84c-.33.4-.9.58-1.32.58-.57 0-1.07-.25-1.4-.66l-1.65-1.82c-1.3.66-2.72 1.23-4.12 1.73l.08 2.48c.1.5-.16 1-.5 1.4-.32.33-.82.58-1.3.58h-9.75c-.5 0-1-.25-1.32-.58-.4-.4-.57-.9-.57-1.4l.17-2.47c-1.4-.5-2.8-1.06-4.13-1.72l-1.73 1.8c-.32.42-.82.67-1.3.67-.5 0-1-.17-1.4-.58l-6.87-6.84c-.33-.33-.58-.82-.5-1.32 0-.57.25-1.06.6-1.4l1.88-1.64c-.73-1.32-1.3-2.72-1.72-4.2l-2.48.16c-.5.08-1.07-.16-1.4-.5-.4-.32-.58-.82-.58-1.4v-9.64c0-.5.17-1 .58-1.32.33-.4.9-.58 1.4-.58l2.48.17c.4-1.4 1-2.8 1.73-4.12l-1.88-1.73c-.34-.33-.58-.83-.58-1.32-.1-.5.16-1 .5-1.4l6.85-6.85c.4-.33.9-.57 1.4-.5.48 0 .98.25 1.3.6l1.74 1.88c1.32-.73 2.73-1.3 4.13-1.72l-.16-2.47c0-.57.17-1.07.58-1.4.33-.4.83-.57 1.32-.57h9.75c.5 0 1 .16 1.32.57.33.34.58.83.5 1.4l-.1 2.48c1.4.4 2.82 1 4.14 1.73l1.66-1.88c.33-.34.83-.58 1.4-.58.5-.08 1 .16 1.32.5l6.86 6.83c.4.42.58.9.58 1.4 0 .5-.25 1-.67 1.33l-1.8 1.73c.65 1.32 1.23 2.72 1.64 4.12zm-1.74 9.57v-5.7l-2.05.17c-.9 0-1.82-.57-1.98-1.48-.5-2.14-1.32-4.12-2.48-5.94-.5-.74-.34-1.73.32-2.4l1.57-1.4-4.05-4.03-1.4 1.57c-.58.66-1.58.82-2.4.33-1.82-1.16-3.8-1.98-5.86-2.4-.92-.24-1.58-1.06-1.5-1.97l.08-2.06h-5.7l.17 2.06c0 .9-.58 1.73-1.5 1.98-2.13.4-4.1 1.23-5.93 2.4-.74.48-1.73.32-2.4-.34l-1.3-1.57-4.14 4.04 1.57 1.4c.74.67.82 1.66.33 2.4-1.16 1.82-2 3.8-2.4 5.94-.25.9-1.15 1.48-1.98 1.48l-2.06-.16v5.7l2.06-.1c.9-.08 1.73.58 1.98 1.5.42 2.05 1.24 4.03 2.4 5.84.5.83.33 1.82-.33 2.48l-1.57 1.3 4.04 4.05 1.4-1.48c.67-.74 1.66-.9 2.4-.4 1.82 1.14 3.8 1.97 5.95 2.46.9.26 1.48 1.08 1.48 2l-.16 2.05h5.68l-.08-2.06c-.08-.92.58-1.74 1.5-2 2.05-.48 4.03-1.3 5.85-2.46.82-.42 1.82-.33 2.48.4l1.32 1.5 4.04-4.05-1.58-1.4c-.66-.58-.82-1.57-.33-2.4 1.15-1.8 1.97-3.8 2.47-5.85.25-.9 1.07-1.57 1.98-1.5zm-65.7-8.4h13.12v3.7H777.5c-1.57 0-3.3 0-5.04-1.16-3.05-1.9-8.1-6.35-8.1-14.85 0-9.97 6.7-13.84 10.74-15.25v-1c-.08-8.48 5.53-17.13 12.97-20.18 8.66-3.7 17.83-1.9 24.5 4.86 2 1.98 3.56 4.3 4.9 7 2.63-1.97 6.1-2.55 9.3-1.56 4.23 1.4 6.95 5.28 7.36 10.47 8.5 1.9 12.8 6.83 12.8 14.75h-3.7c0-8.5-6.46-10.55-11.33-11.38-.5-.08-.9-.4-1.23-.82-.25-.42-.33-.9-.25-1.4-.08-4.13-1.82-7-4.8-8-2.63-.9-5.6.08-7.34 2.4-.4.57-1.07.8-1.73.73-.75-.08-1.32-.58-1.57-1.23-1.16-3.38-2.9-6.2-5.04-8.33-2.72-2.72-10.07-8.5-20.47-4.12-5.95 2.55-10.65 9.9-10.65 16.65l.16 2.4c0 .9-.58 1.72-1.4 1.97-3.55.82-9.5 3.63-9.5 12.03 0 6.35 3.47 9.9 6.36 11.7.83.5 1.65.6 3.06.6zm45.08 3.7h11.22v3.7h-11.22v1.9h-3.8v-1.9h-11.23v-3.7h11.23v-1.9h3.8zm7.42-9.4h3.8v3.8H830v1.9h-3.7v-1.9h-18.75v-3.8h18.74v-1.8h3.7zm-13.12 18.8h16.92v3.7h-16.92v1.9h-3.72v-1.9h-5.6v-3.7h5.6v-1.9h3.72z" stroke="#000" stroke-opacity="0" fill="#c6ffff"/><use xlink:href="#l" transform="matrix(1,0,0,1,715.65,629) translate(27.99382716049383 17.77777777777778)"/><use xlink:href="#m" transform="matrix(1,0,0,1,715.65,629) translate(76.75925925925927 17.77777777777778)"/><use xlink:href="#n" transform="matrix(1,0,0,1,715.65,629) translate(44.38271604938272 44.44444444444444)"/><path d="M833.13 875.47v30.63l-26.28 15.42v-30.7l26.28-15.35z" stroke="#000" stroke-opacity="0" fill="#773adc"/><path d="M822.03 890.8c3.66-2.15 6.66-.47 6.66 3.75-.26 4.86-2.6 8.9-6.67 11.53-3.66 2.14-6.66.46-6.66-3.82.27-4.83 2.6-8.86 6.66-11.47z" stroke="#000" stroke-opacity="0" fill="#552f99"/><path d="M798.2 932.83v30.62l-26.27 15.43v-30.72l26.28-15.33z" stroke="#000" stroke-opacity="0" fill="#773adc"/><path d="M785.07 949.78c3.66-2.07 6.66-.4 6.66 3.83-.28 4.86-2.6 8.87-6.66 11.5-3.66 2.15-6.66.4-6.66-3.8.3-4.85 2.6-8.88 6.67-11.52z" stroke="#000" stroke-opacity="0" fill="#552f99"/><path d="M771.93 948.16v30.72l-26.28-15.43v-30.62l26.28 15.33z" stroke="#000" stroke-opacity="0" fill="#a67af4"/><path d="M865.65 932.95v30.62L839.37 979v-30.72l26.28-15.33z" stroke="#000" stroke-opacity="0" fill="#773adc"/><path d="M822.28 900.85c7.85 3.3 13.24 9.25 15.78 17.4l1.25-.7 6.67 3.85c-1.8-12.48-9.36-22.25-20.97-27.1-1.84-.76-3.94.12-4.7 1.98-.74 1.83.14 3.94 1.98 4.7z" stroke="#000" stroke-opacity="0" fill="#32bedd"/><path d="M839.25 948.38V979l-26.28-15.43v-30.62l26.28 15.42z" stroke="#000" stroke-opacity="0" fill="#a67af4"/><path d="M826.9 950.1c-3.47-2-6.25-.33-6.25 3.6.25 4.58 2.42 8.37 6.24 10.88 3.45 2 6.23.4 6.23-3.6-.25-4.58-2.42-8.38-6.24-10.9z" stroke="#000" stroke-opacity="0" fill="#552f99"/><path d="M807.03 966.98c-7.95.04-14.72-2.08-21.2-6.65-1.74-1.04-2.3-3.3-1.26-5.02 1.05-1.73 3.28-2.28 5.03-1.24.17.1.35.2.48.35 9.7 6.96 21.84 7.42 32.06 1.2 1.7-1.06 3.97-.52 5.02 1.2 1.1 1.74.57 4-1.18 5.06-6.02 3.55-11.97 5.16-18.95 5.12z" stroke="#000" stroke-opacity="0" fill="#32bedd"/><path d="M833.13 875.4l-26.23 15.42-26.33-15.4L806.9 860l26.23 15.4z" stroke="#000" stroke-opacity="0" fill="#b796f9"/><path d="M780.57 894.75c-9.43 6.18-14.87 15.4-15.72 26.65l7.47-4.07v.34c1.4-5.57 4.02-9.9 8.25-13.8z" stroke="#000" stroke-opacity="0" fill="#32bedd"/><path d="M865.65 932.9l-26.34 15.4-26.33-15.4 26.34-15.42 26.35 15.4zM798.33 932.92L772 948.3l-26.35-15.38L772 917.48l26.33 15.44z" stroke="#000" stroke-opacity="0" fill="#b796f9"/><path d="M806.85 890.9v30.62l-26.28-15.42v-30.63l26.28 15.43z" stroke="#000" stroke-opacity="0" fill="#a67af4"/><path d="M780.53 906.06v-2.15l-1.4.58-3.8 4.63-2.65 5.15-.87 3.23 26.45 15.37v26.5l4.6.86 4.72.24 5.33-.68V932.9l25.04-14.7.47-1.57-.92-2.83-2.6-4.58-1.8-2.26-1.73.12-24.58 14.4z" stroke="#000" stroke-opacity="0" fill-opacity="0"/><use xlink:href="#o" transform="matrix(1,0,0,1,715.6499999999999,988) translate(46.55 14.4)"/><path d="M806.15 844.35h-1v-82.38h1zm0-125.58h-1V620.5h1z" stroke="#000" stroke-width=".05"/><path d="M806.15 620.5h-1v-.5h1z"/><path d="M806.17 620.54h-1.04v-.56h1.04zm-1-.5v.45h.96V620z" stroke="#000" stroke-width=".05"/><path d="M805.65 859.1l-4.63-14.25h9.26z"/><path d="M805.65 860.73l-5.32-16.38h10.64zm-3.95-15.38l3.95 12.15 3.95-12.15z" stroke="#000" stroke-width=".05"/><use xlink:href="#p" transform="matrix(1,0,0,1,646.5,718.7665153688057) translate(0 14.399999999999995)"/><use xlink:href="#q" transform="matrix(1,0,0,1,646.5,718.7665153688057) translate(81.84999999999998 14.399999999999995)"/><use xlink:href="#r" transform="matrix(1,0,0,1,646.5,718.7665153688057) translate(117.74999999999997 14.399999999999995)"/><use xlink:href="#s" transform="matrix(1,0,0,1,646.5,718.7665153688057) translate(137.74999999999997 14.399999999999995)"/><use xlink:href="#t" transform="matrix(1,0,0,1,646.5,718.7665153688057) translate(197.59999999999997 14.399999999999995)"/><use xlink:href="#u" transform="matrix(1,0,0,1,646.5,718.7665153688057) translate(224.49999999999994 14.399999999999995)"/><use xlink:href="#v" transform="matrix(1,0,0,1,646.5,718.7665153688057) translate(0 35.999999999999986)"/><path d="M431.5 924.5h-47.12v-1h47.12zm333.15-4.5h-23.82v-1h23.82z" stroke="#000" stroke-width=".05"/><path d="M768.15 919.73l-.46.27h-.28l.73-.4zm-3.08.27h-.43v-1h.6z"/><path d="M765.1 920.02h-.5V919h.66zm3.07-.28l-.48.28h-.38l.85-.46zm-3.5-.72v.96h.38l.15-.96zm2.85.96h.16l.44-.27v-.06z" stroke="#000" stroke-width=".05"/><path d="M383.88 928.63L369.62 924l14.26-4.63z"/><path d="M384.38 929.32L368 924l16.38-5.32zM371.24 924l12.14 3.95v-7.9z" stroke="#000" stroke-width=".05"/><use xlink:href="#w" transform="matrix(1,0,0,1,431.4969780498208,908.8333333333334) translate(0 14.222222222222223)"/><use xlink:href="#x" transform="matrix(1,0,0,1,431.4969780498208,908.8333333333334) translate(55.11111111111112 14.222222222222223)"/><use xlink:href="#y" transform="matrix(1,0,0,1,431.4969780498208,908.8333333333334) translate(139.85185185185188 14.222222222222223)"/><use xlink:href="#z" transform="matrix(1,0,0,1,431.4969780498208,908.8333333333334) translate(161.4814814814815 14.222222222222223)"/><use xlink:href="#A" transform="matrix(1,0,0,1,431.4969780498208,908.8333333333334) translate(222.61728395061732 14.222222222222223)"/><path d="M324 984v290a6 6 0 0 0 6 6h443.62" stroke="#000" fill="none"/><path d="M324.5 984h-1v-.5h1z" stroke="#000" stroke-width=".05"/><path d="M788.38 1280l-14.26 4.63v-9.27z" stroke="#000"/><path d="M240 1040h490v49H240z" fill="#fff" fill-opacity="0"/><use xlink:href="#B" transform="matrix(1,0,0,1,245,1045) translate(240 14.399999999999995)"/><path d="M300 1240h490v49H300z" fill="#fff" fill-opacity="0"/><use xlink:href="#C" transform="matrix(1,0,0,1,305,1245) translate(92.27500000000003 14.399999999999995)"/><use xlink:href="#D" transform="matrix(1,0,0,1,305,1245) translate(157.22500000000002 14.399999999999995)"/><use xlink:href="#E" transform="matrix(1,0,0,1,305,1245) translate(250.025 14.399999999999995)"/><use xlink:href="#F" transform="matrix(1,0,0,1,305,1245) translate(290.92499999999995 14.399999999999995)"/><path d="M740 1201.53V1060h200v141.53z" fill="#fff" fill-opacity="0"/><use xlink:href="#G" transform="matrix(6.123233995736766e-17,-1,1,6.123233995736766e-17,745,1196.5333333333333) translate(27.55000000000002 14.399999999999995)"/><use xlink:href="#H" transform="matrix(6.123233995736766e-17,-1,1,6.123233995736766e-17,745,1196.5333333333333) translate(81.5 14.399999999999995)"/><use xlink:href="#I" transform="matrix(6.123233995736766e-17,-1,1,6.123233995736766e-17,745,1196.5333333333333) translate(15.675000000000011 35.999999999999986)"/><use xlink:href="#J" transform="matrix(6.123233995736766e-17,-1,1,6.123233995736766e-17,745,1196.5333333333333) translate(81.475 35.999999999999986)"/><use xlink:href="#K" transform="matrix(6.123233995736766e-17,-1,1,6.123233995736766e-17,745,1196.5333333333333) translate(30.60000000000001 57.59999999999998)"/><use xlink:href="#L" transform="matrix(6.123233995736766e-17,-1,1,6.123233995736766e-17,745,1196.5333333333333) translate(83.44999999999999 57.59999999999998)"/><path d="M1217.03 540h-335" stroke="#000" fill="none"/><path d="M1217.53 540.5h-.5v-1h.5z" stroke="#000" stroke-width=".05"/><path d="M867.27 540l14.26-4.63v9.26z" stroke="#000"/><path d="M866.15 560h335" stroke="#000" fill="none"/><path d="M866.16 560.5h-.5v-1h.5z" stroke="#000" stroke-width=".05"/><path d="M1215.9 560l-14.25 4.63v-9.26z" stroke="#000"/><path d="M880 520h348.2v49H880z" fill="#fff" fill-opacity="0"/><use xlink:href="#M" transform="matrix(1,0,0,1,885,525) translate(89.75000000000003 14.399999999999995)"/><use xlink:href="#N" transform="matrix(1,0,0,1,885,525) translate(152.55 14.399999999999995)"/><use xlink:href="#O" transform="matrix(1,0,0,1,885,525) translate(218.35 14.399999999999995)"/><path d="M925.33 560h257.54v49H925.33z" fill="#fff" fill-opacity="0"/><use xlink:href="#P" transform="matrix(1,0,0,1,930.3333333333334,565) translate(1.7500000000000284 14.399999999999995)"/><use xlink:href="#Q" transform="matrix(1,0,0,1,930.3333333333334,565) translate(57.65000000000002 14.399999999999995)"/><use xlink:href="#r" transform="matrix(1,0,0,1,930.3333333333334,565) translate(99.55000000000001 14.399999999999995)"/><use xlink:href="#s" transform="matrix(1,0,0,1,930.3333333333334,565) translate(119.55000000000001 14.399999999999995)"/><use xlink:href="#t" transform="matrix(1,0,0,1,930.3333333333334,565) translate(179.4 14.399999999999995)"/><use xlink:href="#R" transform="matrix(1,0,0,1,930.3333333333334,565) translate(206.29999999999998 14.399999999999995)"/><path d="M726.1 320h160v80h-160zm0 20h160m-160 40h160" stroke="#000" fill="#9391ff"/><g><use xlink:href="#S" transform="matrix(1,0,0,1,726.1003086419753,340) translate(5.432098765432102 25.27777777777778)"/><use xlink:href="#T" transform="matrix(1,0,0,1,726.1003086419753,340) translate(70.74074074074073 25.27777777777778)"/></g><path d="M806.6 483.62h-1v-34.57h1zm0-55.9h-1V401h1z" stroke="#3a414a" stroke-width=".05" fill="#3a414a"/><path d="M806.6 401h-1v-.5h1z" fill="#3a414a"/><path d="M806.63 401.04h-1.05v-.56h1.04zm-1-.52v.47h.95v-.48z" stroke="#3a414a" stroke-width=".05" fill="#3a414a"/><path d="M806.1 498.38l-4.63-14.26h9.27z" fill="#3a414a"/><path d="M806.1 500l-5.32-16.38h10.64zm-3.95-15.38l3.95 12.14 3.95-12.14z" stroke="#3a414a" stroke-width=".05" fill="#3a414a"/><g><use xlink:href="#U" transform="matrix(1,0,0,1,523.0879629629628,427.7138968323803) translate(0 14.222222222222223)"/><use xlink:href="#V" transform="matrix(1,0,0,1,523.0879629629628,427.7138968323803) translate(41.333333333333336 14.222222222222223)"/><use xlink:href="#W" transform="matrix(1,0,0,1,523.0879629629628,427.7138968323803) translate(106.32098765432099 14.222222222222223)"/><use xlink:href="#X" transform="matrix(1,0,0,1,523.0879629629628,427.7138968323803) translate(135.80246913580248 14.222222222222223)"/><use xlink:href="#Y" transform="matrix(1,0,0,1,523.0879629629628,427.7138968323803) translate(232.3950617283951 14.222222222222223)"/><use xlink:href="#Z" transform="matrix(1,0,0,1,523.0879629629628,427.7138968323803) translate(309.23456790123464 14.222222222222223)"/><use xlink:href="#aa" transform="matrix(1,0,0,1,523.0879629629628,427.7138968323803) translate(324.0493827160495 14.222222222222223)"/><use xlink:href="#ab" transform="matrix(1,0,0,1,523.0879629629628,427.7138968323803) translate(389.0370370370371 14.222222222222223)"/><use xlink:href="#ac" transform="matrix(1,0,0,1,523.0879629629628,427.7138968323803) translate(444.8395061728396 14.222222222222223)"/><use xlink:href="#ad" transform="matrix(1,0,0,1,523.0879629629628,427.7138968323803) translate(471.4074074074075 14.222222222222223)"/></g><path d="M324.5 855h-1V467.17h1zm258.62-694.5h-253.1l-.88.07-.84.2-.8.33-.73.45-.66.56-.55.67-.45.73-.33.8-.2.84-.07.88v279.8h-1V166l.08-1 .24-1 .4-.93.52-.87.66-.78.78-.66.87-.53.94-.38.98-.24 1-.08h253.14z" stroke="#3a414a" stroke-width=".05" fill="#3a414a"/><path d="M324.5 855.5h-1v-.5h1z" fill="#3a414a"/><path d="M324.52 855.52h-1.04v-.56h1.04zm-1-.5v.46h.96V855z" stroke="#3a414a" stroke-width=".05" fill="#3a414a"/><path d="M597.88 160l-14.26 4.63v-9.26z" fill="#3a414a"/><path d="M599.5 160l-16.38 5.32v-10.64zm-15.38 3.95l12.14-3.95-12.14-3.95z" stroke="#3a414a" stroke-width=".05" fill="#3a414a"/><g><use xlink:href="#ae" transform="matrix(1,0,0,1,195.7037037037037,445.83127806605984) translate(0 14.222222222222223)"/><use xlink:href="#af" transform="matrix(1,0,0,1,195.7037037037037,445.83127806605984) translate(46.71604938271606 14.222222222222223)"/><use xlink:href="#ag" transform="matrix(1,0,0,1,195.7037037037037,445.83127806605984) translate(124.64197530864197 14.222222222222223)"/><use xlink:href="#ah" transform="matrix(1,0,0,1,195.7037037037037,445.83127806605984) translate(153.1851851851852 14.222222222222223)"/></g><path d="M800.5 303.12h-1v-22.45h1zm0-43.8h-1V221h1z" stroke="#3a414a" stroke-width=".05" fill="#3a414a"/><path d="M800.5 221h-1v-.5h1z" fill="#3a414a"/><path d="M800.52 221.04h-1.04v-.56h1.04zm-1-.5v.45h.96v-.47z" stroke="#3a414a" stroke-width=".05" fill="#3a414a"/><path d="M800 317.88l-4.63-14.26h9.26z" fill="#3a414a"/><path d="M800 319.5l-5.32-16.38h10.64zm-3.95-15.38l3.95 12.14 3.95-12.14z" stroke="#3a414a" stroke-width=".05" fill="#3a414a"/><g><use xlink:href="#ai" transform="matrix(1,0,0,1,710.8641975308642,259.3333083333333) translate(0 14.222222222222223)"/><use xlink:href="#aj" transform="matrix(1,0,0,1,710.8641975308642,259.3333083333333) translate(48.19753086419753 14.222222222222223)"/><use xlink:href="#ak" transform="matrix(1,0,0,1,710.8641975308642,259.3333083333333) translate(139.85185185185185 14.222222222222223)"/></g><path d="M815.65 1239.5V982.3" stroke="#000" fill="none"/><path d="M816.15 1240h-1v-.5h1z" stroke="#000" stroke-width=".05"/><path d="M815.65 967.52l4.63 14.27h-9.26z" stroke="#000"/><defs><path d="M631-137c179 0 314-70 314-231 0-71-25-127-75-166s-141-77-272-115c-165-47-285-106-360-175s-112-154-112-255c0-245 231-397 495-397 206 0 369 89 449 218 43 68 65 142 65 223H942c0-184-129-283-321-283-172 0-299 76-301 236 0 59 26 109 76 150s135 78 256 113c205 59 345 116 436 256 35 53 50 119 50 193-2 256-231 398-507 390C333 12 90-129 80-422h193c0 187 160 285 358 285" id="al"/><path d="M456 20C285 20 205-92 206-268v-671H9v-143h197v-262h185v262h202v143H391v671c-9 125 92 149 207 118V0c-49 13-96 20-142 20" id="am"/><path d="M491 20c-241-1-355-148-355-398v-704h185v699c0 164 67 246 200 246 141 0 235-53 282-158v-787h185V0H812l-4-107C736-22 630 20 491 20" id="an"/><path d="M520 20C244 20 95-247 95-550c0-298 151-550 427-552 127 0 227 43 301 130v-564h185V0H838l-9-116C755-25 652 20 520 20zm48-965c-210 0-288 177-288 416 0 218 87 392 286 392 117 0 203-53 257-158v-497c-55-102-140-153-255-153" id="ao"/><path d="M599-131c141 0 220-65 285-146l113 88C906-50 770 20 589 20 281 21 93-214 93-545c0-223 93-397 233-485 74-48 154-72 240-72 300 2 449 218 445 537v77H278c0 197 129 357 321 357zm227-509c-3-180-88-310-260-310-170 0-264 140-282 310h542" id="ap"/><path d="M589-945c-131 0-219 81-264 174V0H140v-1082h175l6 136c83-104 191-156 324-156 229 0 346 129 346 387V0H806v-716c-2-153-65-229-217-229" id="aq"/><path d="M538-131c121 0 232-49 232-156 0-50-20-88-56-117-73-60-334-92-420-143-92-55-162-110-162-238 0-190 192-317 400-317 223 0 414 129 413 338H759c0-108-110-186-227-186-119 0-215 53-215 159 0 45 18 78 53 101 76 52 331 90 416 139 98 57 169 115 169 251C955-92 760 20 538 20c-176 0-314-68-386-174-38-55-57-115-57-179h185c6 129 116 202 258 202" id="ar"/><g id="b"><use transform="matrix(0.0065107421875,0,0,0.0065107421875,0,0)" xlink:href="#al"/><use transform="matrix(0.0065107421875,0,0,0.0065107421875,7.9105517578125,0)" xlink:href="#am"/><use transform="matrix(0.0065107421875,0,0,0.0065107421875,12.26623828125,0)" xlink:href="#an"/><use transform="matrix(0.0065107421875,0,0,0.0065107421875,19.616866210937502,0)" xlink:href="#ao"/><use transform="matrix(0.0065107421875,0,0,0.0065107421875,27.136773437500004,0)" xlink:href="#ap"/><use transform="matrix(0.0065107421875,0,0,0.0065107421875,34.200928710937504,0)" xlink:href="#aq"/><use transform="matrix(0.0065107421875,0,0,0.0065107421875,41.5580673828125,0)" xlink:href="#am"/><use transform="matrix(0.0065107421875,0,0,0.0065107421875,45.91375390625,0)" xlink:href="#ar"/></g><filter id="a" filterUnits="objectBoundingBox" x="-.02" y="0" width="1.03" height="1.02"><feOffset result="offOut" in="SourceAlpha" dy="1"/><feGaussianBlur result="blurOut" in="offOut" stdDeviation=".75"/><feColorMatrix result="colorOut" in="blurOut" values="0 0 0 0 0 0 0 0 0 0 0 0 0 0 0 0 0 0 0.4 0"/><feBlend in="SourceGraphic" in2="colorOut"/></filter><path d="M185-189c-5-48-123-54-124 2 14 75 158 14 163 119 3 78-121 87-175 55-17-10-28-26-33-46l33-7c5 56 141 63 141-1 0-78-155-14-162-118-5-82 145-84 179-34 5 7 8 16 11 25" id="as"/><path d="M96-169c-40 0-48 33-48 73s9 75 48 75c24 0 41-14 43-38l32 2c-6 37-31 61-74 61-59 0-76-41-82-99-10-93 101-131 147-64 4 7 5 14 7 22l-32 3c-4-21-16-35-41-35" id="at"/><path d="M106-169C34-169 62-67 57 0H25v-261h32l-1 103c12-21 28-36 61-36 89 0 53 116 60 194h-32v-121c2-32-8-49-39-48" id="au"/><path d="M100-194c62-1 85 37 85 99 1 63-27 99-86 99S16-35 15-95c0-66 28-99 85-99zM99-20c44 1 53-31 53-75 0-43-8-75-51-75s-53 32-53 75 10 74 51 75" id="av"/><path d="M24 0v-261h32V0H24" id="aw"/><path d="M135-143c-3-34-86-38-87 0 15 53 115 12 119 90S17 21 10-45l28-5c4 36 97 45 98 0-10-56-113-15-118-90-4-57 82-63 122-42 12 7 21 19 24 35" id="ax"/><g id="c"><use transform="matrix(0.05,0,0,0.05,0,0)" xlink:href="#as"/><use transform="matrix(0.05,0,0,0.05,12,0)" xlink:href="#at"/><use transform="matrix(0.05,0,0,0.05,21,0)" xlink:href="#au"/><use transform="matrix(0.05,0,0,0.05,31,0)" xlink:href="#av"/><use transform="matrix(0.05,0,0,0.05,41,0)" xlink:href="#av"/><use transform="matrix(0.05,0,0,0.05,51,0)" xlink:href="#aw"/><use transform="matrix(0.05,0,0,0.05,54.95,0)" xlink:href="#ax"/></g><path d="M33 0v-248h34V0H33" id="ay"/><path d="M117-194c89-4 53 116 60 194h-32v-121c0-31-8-49-39-48C34-167 62-67 57 0H25l-1-190h30c1 10-1 24 2 32 11-22 29-35 61-36" id="az"/><path d="M59-47c-2 24 18 29 38 22v24C64 9 27 4 27-40v-127H5v-23h24l9-43h21v43h35v23H59v120" id="aA"/><path d="M24-231v-30h32v30H24zM24 0v-190h32V0H24" id="aB"/><path d="M84 4C-5 8 30-112 23-190h32v120c0 31 7 50 39 49 72-2 45-101 50-169h31l1 190h-30c-1-10 1-25-2-33-11 22-28 36-60 37" id="aC"/><path d="M100-194c63 0 86 42 84 106H49c0 40 14 67 53 68 26 1 43-12 49-29l28 8c-11 28-37 45-77 45C44 4 14-33 15-96c1-61 26-98 85-98zm52 81c6-60-76-77-97-28-3 7-6 17-6 28h103" id="aD"/><g id="d"><use transform="matrix(0.05,0,0,0.05,0,0)" xlink:href="#ay"/><use transform="matrix(0.05,0,0,0.05,5,0)" xlink:href="#az"/><use transform="matrix(0.05,0,0,0.05,15,0)" xlink:href="#ax"/><use transform="matrix(0.05,0,0,0.05,24,0)" xlink:href="#aA"/><use transform="matrix(0.05,0,0,0.05,29,0)" xlink:href="#aB"/><use transform="matrix(0.05,0,0,0.05,32.95,0)" xlink:href="#aA"/><use transform="matrix(0.05,0,0,0.05,37.95,0)" xlink:href="#aC"/><use transform="matrix(0.05,0,0,0.05,47.95,0)" xlink:href="#aD"/><use transform="matrix(0.05,0,0,0.05,57.95,0)" xlink:href="#ax"/></g><path d="M143 4C61 4 22-44 18-125c-5-107 100-154 193-111 17 8 29 25 37 43l-32 9c-13-25-37-40-76-40-61 0-88 39-88 99 0 61 29 100 91 101 35 0 62-11 79-27v-45h-74v-28h105v86C228-13 192 4 143 4" id="aE"/><path d="M108 0H70L1-190h34L89-25l56-165h34" id="aF"/><path d="M114-163C36-179 61-72 57 0H25l-1-190h30c1 12-1 29 2 39 6-27 23-49 58-41v29" id="aG"/><path d="M210-169c-67 3-38 105-44 169h-31v-121c0-29-5-50-35-48C34-165 62-65 56 0H25l-1-190h30c1 10-1 24 2 32 10-44 99-50 107 0 11-21 27-35 58-36 85-2 47 119 55 194h-31v-121c0-29-5-49-35-48" id="aH"/><g id="e"><use transform="matrix(0.05,0,0,0.05,0,0)" xlink:href="#aE"/><use transform="matrix(0.05,0,0,0.05,14,0)" xlink:href="#av"/><use transform="matrix(0.05,0,0,0.05,24,0)" xlink:href="#aF"/><use transform="matrix(0.05,0,0,0.05,33,0)" xlink:href="#aD"/><use transform="matrix(0.05,0,0,0.05,43,0)" xlink:href="#aG"/><use transform="matrix(0.05,0,0,0.05,48.95,0)" xlink:href="#az"/><use transform="matrix(0.05,0,0,0.05,58.95,0)" xlink:href="#aH"/><use transform="matrix(0.05,0,0,0.05,73.9,0)" xlink:href="#aD"/><use transform="matrix(0.05,0,0,0.05,83.9,0)" xlink:href="#az"/><use transform="matrix(0.05,0,0,0.05,93.9,0)" xlink:href="#aA"/></g><linearGradient gradientUnits="userSpaceOnUse" id="f" x1="1307.71" y1="599.7" x2="1235.11" y2="486.18"><stop offset="10.1%" stop-color="#773adc"/><stop offset="100%" stop-color="#403457"/></linearGradient><path d="M30-248c87 1 191-15 191 75 0 78-77 80-158 76V0H30v-248zm33 125c57 0 124 11 124-50 0-59-68-47-124-48v98" id="aI"/><path d="M63-220v92h138v28H63V0H30v-248h175v28H63" id="aJ"/><g id="g"><use transform="matrix(0.08086419753086417,0,0,0.08086419753086417,0,0)" xlink:href="#ay"/><use transform="matrix(0.08086419753086417,0,0,0.08086419753086417,8.086419753086417,0)" xlink:href="#aI"/><use transform="matrix(0.08086419753086417,0,0,0.08086419753086417,27.49382716049382,0)" xlink:href="#aJ"/><use transform="matrix(0.08086419753086417,0,0,0.08086419753086417,45.20308641975307,0)" xlink:href="#as"/></g><path fill="#3a414a" d="M212-179c-10-28-35-45-73-45-59 0-87 40-87 99 0 60 29 101 89 101 43 0 62-24 78-52l27 14C228-24 195 4 139 4 59 4 22-46 18-125c-6-104 99-153 187-111 19 9 31 26 39 46" id="aK"/><path fill="#3a414a" d="M100-194c62-1 85 37 85 99 1 63-27 99-86 99S16-35 15-95c0-66 28-99 85-99zM99-20c44 1 53-31 53-75 0-43-8-75-51-75s-53 32-53 75 10 74 51 75" id="aL"/><path fill="#3a414a" d="M210-169c-67 3-38 105-44 169h-31v-121c0-29-5-50-35-48C34-165 62-65 56 0H25l-1-190h30c1 10-1 24 2 32 10-44 99-50 107 0 11-21 27-35 58-36 85-2 47 119 55 194h-31v-121c0-29-5-49-35-48" id="aM"/><path fill="#3a414a" d="M115-194c55 1 70 41 70 98S169 2 115 4C84 4 66-9 55-30l1 105H24l-1-265h31l2 30c10-21 28-34 59-34zm-8 174c40 0 45-34 45-75s-6-73-45-74c-42 0-51 32-51 76 0 43 10 73 51 73" id="aN"/><path fill="#3a414a" d="M141-36C126-15 110 5 73 4 37 3 15-17 15-53c-1-64 63-63 125-63 3-35-9-54-41-54-24 1-41 7-42 31l-33-3c5-37 33-52 76-52 45 0 72 20 72 64v82c-1 20 7 32 28 27v20c-31 9-61-2-59-35zM48-53c0 20 12 33 32 33 41-3 63-29 60-74-43 2-92-5-92 41" id="aO"/><path fill="#3a414a" d="M117-194c89-4 53 116 60 194h-32v-121c0-31-8-49-39-48C34-167 62-67 57 0H25l-1-190h30c1 10-1 24 2 32 11-22 29-35 61-36" id="aP"/><path fill="#3a414a" d="M179-190L93 31C79 59 56 82 12 73V49c39 6 53-20 64-50L1-190h34L92-34l54-156h33" id="aQ"/><g id="h"><use transform="matrix(0.06172839506172839,0,0,0.06172839506172839,0,0)" xlink:href="#aK"/><use transform="matrix(0.06172839506172839,0,0,0.06172839506172839,15.987654320987653,0)" xlink:href="#aL"/><use transform="matrix(0.06172839506172839,0,0,0.06172839506172839,28.333333333333332,0)" xlink:href="#aM"/><use transform="matrix(0.06172839506172839,0,0,0.06172839506172839,46.79012345679012,0)" xlink:href="#aN"/><use transform="matrix(0.06172839506172839,0,0,0.06172839506172839,59.1358024691358,0)" xlink:href="#aO"/><use transform="matrix(0.06172839506172839,0,0,0.06172839506172839,71.48148148148148,0)" xlink:href="#aP"/><use transform="matrix(0.06172839506172839,0,0,0.06172839506172839,83.82716049382717,0)" xlink:href="#aQ"/></g><path fill="#3a414a" d="M0 4l72-265h28L28 4H0" id="aR"/><use transform="matrix(0.06172839506172839,0,0,0.06172839506172839,0,0)" xlink:href="#aR" id="i"/><path fill="#3a414a" d="M140-251c81 0 123 46 123 126C263-46 219 4 140 4 59 4 17-45 17-125s42-126 123-126zm0 227c63 0 89-41 89-101s-29-99-89-99c-61 0-89 39-89 99S79-25 140-24" id="aS"/><path fill="#3a414a" d="M114-163C36-179 61-72 57 0H25l-1-190h30c1 12-1 29 2 39 6-27 23-49 58-41v29" id="aT"/><path fill="#3a414a" d="M177-190C167-65 218 103 67 71c-23-6-38-20-44-43l32-5c15 47 100 32 89-28v-30C133-14 115 1 83 1 29 1 15-40 15-95c0-56 16-97 71-98 29-1 48 16 59 35 1-10 0-23 2-32h30zM94-22c36 0 50-32 50-73 0-42-14-75-50-75-39 0-46 34-46 75s6 73 46 73" id="aU"/><path fill="#3a414a" d="M24-231v-30h32v30H24zM24 0v-190h32V0H24" id="aV"/><path fill="#3a414a" d="M9 0v-24l116-142H16v-24h144v24L44-24h123V0H9" id="aW"/><path fill="#3a414a" d="M59-47c-2 24 18 29 38 22v24C64 9 27 4 27-40v-127H5v-23h24l9-43h21v43h35v23H59v120" id="aX"/><g id="j"><use transform="matrix(0.06172839506172839,0,0,0.06172839506172839,0,0)" xlink:href="#aS"/><use transform="matrix(0.06172839506172839,0,0,0.06172839506172839,17.28395061728395,0)" xlink:href="#aT"/><use transform="matrix(0.06172839506172839,0,0,0.06172839506172839,24.629629629629626,0)" xlink:href="#aU"/><use transform="matrix(0.06172839506172839,0,0,0.06172839506172839,36.9753086419753,0)" xlink:href="#aO"/><use transform="matrix(0.06172839506172839,0,0,0.06172839506172839,49.32098765432098,0)" xlink:href="#aP"/><use transform="matrix(0.06172839506172839,0,0,0.06172839506172839,61.66666666666666,0)" xlink:href="#aV"/><use transform="matrix(0.06172839506172839,0,0,0.06172839506172839,66.5432098765432,0)" xlink:href="#aW"/><use transform="matrix(0.06172839506172839,0,0,0.06172839506172839,77.65432098765432,0)" xlink:href="#aO"/><use transform="matrix(0.06172839506172839,0,0,0.06172839506172839,90,0)" xlink:href="#aX"/><use transform="matrix(0.06172839506172839,0,0,0.06172839506172839,96.17283950617283,0)" xlink:href="#aV"/><use transform="matrix(0.06172839506172839,0,0,0.06172839506172839,101.04938271604938,0)" xlink:href="#aL"/><use transform="matrix(0.06172839506172839,0,0,0.06172839506172839,113.39506172839506,0)" xlink:href="#aP"/></g><linearGradient gradientUnits="userSpaceOnUse" id="k" x1="745.65" y1="620" x2="865.65" y2="500"><stop offset="0%" stop-color="#773adc"/><stop offset="100%" stop-color="#c681ff"/></linearGradient><path fill="#3a414a" d="M190 0L58-211 59 0H30v-248h39L202-35l-2-213h31V0h-41" id="aY"/><path fill="#3a414a" d="M63-220v92h138v28H63V0H30v-248h175v28H63" id="aZ"/><path fill="#3a414a" d="M127-220V0H93v-220H8v-28h204v28h-85" id="ba"/><g id="l"><use transform="matrix(0.06172839506172839,0,0,0.06172839506172839,0,0)" xlink:href="#aY"/><use transform="matrix(0.06172839506172839,0,0,0.06172839506172839,15.987654320987653,0)" xlink:href="#aZ"/><use transform="matrix(0.06172839506172839,0,0,0.06172839506172839,29.50617283950617,0)" xlink:href="#ba"/></g><path fill="#3a414a" d="M160-131c35 5 61 23 61 61C221 17 115-2 30 0v-248c76 3 177-17 177 60 0 33-19 50-47 57zm-97-11c50-1 110 9 110-42 0-47-63-36-110-37v79zm0 115c55-2 124 14 124-45 0-56-70-42-124-44v89" id="bb"/><path fill="#3a414a" d="M205 0l-28-72H64L36 0H1l101-248h38L239 0h-34zm-38-99l-47-123c-12 45-31 82-46 123h93" id="bc"/><path fill="#3a414a" d="M185-189c-5-48-123-54-124 2 14 75 158 14 163 119 3 78-121 87-175 55-17-10-28-26-33-46l33-7c5 56 141 63 141-1 0-78-155-14-162-118-5-82 145-84 179-34 5 7 8 16 11 25" id="bd"/><path fill="#3a414a" d="M30 0v-248h187v28H63v79h144v27H63v87h162V0H30" id="be"/><path fill="#3a414a" d="M30-248c118-7 216 8 213 122C240-48 200 0 122 0H30v-248zM63-27c89 8 146-16 146-99s-60-101-146-95v194" id="bf"/><g id="m"><use transform="matrix(0.06172839506172839,0,0,0.06172839506172839,0,0)" xlink:href="#bb"/><use transform="matrix(0.06172839506172839,0,0,0.06172839506172839,14.814814814814813,0)" xlink:href="#bc"/><use transform="matrix(0.06172839506172839,0,0,0.06172839506172839,29.629629629629626,0)" xlink:href="#bd"/><use transform="matrix(0.06172839506172839,0,0,0.06172839506172839,44.44444444444444,0)" xlink:href="#be"/><use transform="matrix(0.06172839506172839,0,0,0.06172839506172839,59.25925925925925,0)" xlink:href="#bf"/></g><path fill="#3a414a" d="M137-103V0h-34v-103L8-248h37l75 118 75-118h37" id="bg"/><path fill="#3a414a" d="M240 0l2-218c-23 76-54 145-80 218h-23L58-218 59 0H30v-248h44l77 211c21-75 51-140 76-211h43V0h-30" id="bh"/><g id="n"><use transform="matrix(0.06172839506172839,0,0,0.06172839506172839,0,0)" xlink:href="#bd"/><use transform="matrix(0.06172839506172839,0,0,0.06172839506172839,14.814814814814813,0)" xlink:href="#bg"/><use transform="matrix(0.06172839506172839,0,0,0.06172839506172839,29.629629629629626,0)" xlink:href="#bd"/><use transform="matrix(0.06172839506172839,0,0,0.06172839506172839,44.44444444444444,0)" xlink:href="#ba"/><use transform="matrix(0.06172839506172839,0,0,0.06172839506172839,57.96296296296296,0)" xlink:href="#be"/><use transform="matrix(0.06172839506172839,0,0,0.06172839506172839,72.77777777777777,0)" xlink:href="#bh"/></g><path d="M160-131c35 5 61 23 61 61C221 17 115-2 30 0v-248c76 3 177-17 177 60 0 33-19 50-47 57zm-97-11c50-1 110 9 110-42 0-47-63-36-110-37v79zm0 115c55-2 124 14 124-45 0-56-70-42-124-44v89" id="bi"/><path d="M143 0L79-87 56-68V0H24v-261h32v163l83-92h37l-77 82L181 0h-38" id="bj"/><path d="M141-36C126-15 110 5 73 4 37 3 15-17 15-53c-1-64 63-63 125-63 3-35-9-54-41-54-24 1-41 7-42 31l-33-3c5-37 33-52 76-52 45 0 72 20 72 64v82c-1 20 7 32 28 27v20c-31 9-61-2-59-35zM48-53c0 20 12 33 32 33 41-3 63-29 60-74-43 2-92-5-92 41" id="bk"/><g id="o"><use transform="matrix(0.05,0,0,0.05,0,0)" xlink:href="#bi"/><use transform="matrix(0.05,0,0,0.05,12,0)" xlink:href="#aw"/><use transform="matrix(0.05,0,0,0.05,15.949999999999998,0)" xlink:href="#av"/><use transform="matrix(0.05,0,0,0.05,25.950000000000003,0)" xlink:href="#at"/><use transform="matrix(0.05,0,0,0.05,34.95,0)" xlink:href="#bj"/><use transform="matrix(0.05,0,0,0.05,43.95,0)" xlink:href="#at"/><use transform="matrix(0.05,0,0,0.05,52.95,0)" xlink:href="#au"/><use transform="matrix(0.05,0,0,0.05,62.95,0)" xlink:href="#bk"/><use transform="matrix(0.05,0,0,0.05,72.95,0)" xlink:href="#aB"/><use transform="matrix(0.05,0,0,0.05,76.9,0)" xlink:href="#az"/></g><path fill="#333" d="M67-125c0 53 21 87 73 88 37 1 54-22 65-47l45 17C233-25 199 4 140 4 58 4 20-42 15-125 8-235 124-281 211-232c18 10 29 29 36 50l-46 12c-8-25-30-41-62-41-52 0-71 34-72 86" id="bl"/><path fill="#333" d="M185-48c-13 30-37 53-82 52C43 2 14-33 14-96s30-98 90-98c62 0 83 45 84 108H66c0 31 8 55 39 56 18 0 30-7 34-22zm-45-69c5-46-57-63-70-21-2 6-4 13-4 21h74" id="bm"/><path fill="#333" d="M135-150c-39-12-60 13-60 57V0H25l-1-190h47c2 13-1 29 3 40 6-28 27-53 61-41v41" id="bn"/><path fill="#333" d="M115-3C79 11 28 4 28-45v-112H4v-33h27l15-45h31v45h36v33H77v99c-1 23 16 31 38 25v30" id="bo"/><path fill="#333" d="M25-224v-37h50v37H25zM25 0v-190h50V0H25" id="bp"/><path fill="#333" d="M190-63c-7 42-38 67-86 67-59 0-84-38-90-98-12-110 154-137 174-36l-49 2c-2-19-15-32-35-32-30 0-35 28-38 64-6 74 65 87 74 30" id="bq"/><path fill="#333" d="M133-34C117-15 103 5 69 4 32 3 11-16 11-54c-1-60 55-63 116-61 1-26-3-47-28-47-18 1-26 9-28 27l-52-2c7-38 36-58 82-57s74 22 75 68l1 82c-1 14 12 18 25 15v27c-30 8-71 5-69-32zm-48 3c29 0 43-24 42-57-32 0-66-3-65 30 0 17 8 27 23 27" id="br"/><g id="p"><use transform="matrix(0.04999999999999998,0,0,0.04999999999999998,0,0)" xlink:href="#bl"/><use transform="matrix(0.04999999999999998,0,0,0.04999999999999998,12.949999999999996,0)" xlink:href="#bm"/><use transform="matrix(0.04999999999999998,0,0,0.04999999999999998,22.949999999999992,0)" xlink:href="#bn"/><use transform="matrix(0.04999999999999998,0,0,0.04999999999999998,29.94999999999999,0)" xlink:href="#bo"/><use transform="matrix(0.04999999999999998,0,0,0.04999999999999998,35.899999999999984,0)" xlink:href="#bp"/><use transform="matrix(0.04999999999999998,0,0,0.04999999999999998,40.899999999999984,0)" xlink:href="#bq"/><use transform="matrix(0.04999999999999998,0,0,0.04999999999999998,50.89999999999998,0)" xlink:href="#br"/><use transform="matrix(0.04999999999999998,0,0,0.04999999999999998,60.89999999999998,0)" xlink:href="#bo"/><use transform="matrix(0.04999999999999998,0,0,0.04999999999999998,66.84999999999998,0)" xlink:href="#bm"/></g><path fill="#333" d="M238-95c0 69-44 99-111 99C63 4 22-25 22-93v-155h51v151c-1 38 19 59 55 60 90 1 49-130 58-211h52v153" id="bs"/><path fill="#333" d="M240-174c0 40-23 61-54 70L253 0h-59l-57-94H76V0H24v-248c93 4 217-23 216 74zM76-134c48-2 112 12 112-38 0-48-66-32-112-35v73" id="bt"/><path fill="#333" d="M24 0v-248h52V0H24" id="bu"/><g id="q"><use transform="matrix(0.04999999999999998,0,0,0.04999999999999998,0,0)" xlink:href="#bs"/><use transform="matrix(0.04999999999999998,0,0,0.04999999999999998,12.949999999999996,0)" xlink:href="#bt"/><use transform="matrix(0.04999999999999998,0,0,0.04999999999999998,25.89999999999999,0)" xlink:href="#bu"/></g><path fill="#333" d="M137-138c1-29-70-34-71-4 15 46 118 7 119 86 1 83-164 76-172 9l43-7c4 19 20 25 44 25 33 8 57-30 24-41C81-84 22-81 20-136c-2-80 154-74 161-7" id="bv"/><g id="r"><use transform="matrix(0.04999999999999998,0,0,0.04999999999999998,0,0)" xlink:href="#bp"/><use transform="matrix(0.04999999999999998,0,0,0.04999999999999998,4.999999999999998,0)" xlink:href="#bv"/></g><path fill="#333" d="M110-194c64 0 96 36 96 99 0 64-35 99-97 99-61 0-95-36-95-99 0-62 34-99 96-99zm-1 164c35 0 45-28 45-65 0-40-10-65-43-65-34 0-45 26-45 65 0 36 10 65 43 65" id="bw"/><path fill="#333" d="M88-194c31-1 46 15 58 34l-1-101h50l1 261h-48c-2-10 0-23-3-31C134-8 116 4 84 4 32 4 16-41 15-95c0-56 19-97 73-99zm17 164c33 0 40-30 41-66 1-37-9-64-41-64s-38 30-39 65c0 43 13 65 39 65" id="bx"/><g id="s"><use transform="matrix(0.04999999999999998,0,0,0.04999999999999998,0,0)" xlink:href="#bv"/><use transform="matrix(0.04999999999999998,0,0,0.04999999999999998,9.999999999999996,0)" xlink:href="#bo"/><use transform="matrix(0.04999999999999998,0,0,0.04999999999999998,15.949999999999994,0)" xlink:href="#bw"/><use transform="matrix(0.04999999999999998,0,0,0.04999999999999998,26.89999999999999,0)" xlink:href="#bn"/><use transform="matrix(0.04999999999999998,0,0,0.04999999999999998,33.89999999999999,0)" xlink:href="#bm"/><use transform="matrix(0.04999999999999998,0,0,0.04999999999999998,43.89999999999999,0)" xlink:href="#bx"/></g><path fill="#333" d="M135-194c87-1 58 113 63 194h-50c-7-57 23-157-34-157-59 0-34 97-39 157H25l-1-190h47c2 12-1 28 3 38 12-26 28-41 61-42" id="by"/><g id="t"><use transform="matrix(0.04999999999999998,0,0,0.04999999999999998,0,0)" xlink:href="#bw"/><use transform="matrix(0.04999999999999998,0,0,0.04999999999999998,10.949999999999996,0)" xlink:href="#by"/></g><path fill="#333" d="M135-194c52 0 70 43 70 98 0 56-19 99-73 100-30 1-46-15-58-35L72 0H24l1-261h50v104c11-23 29-37 60-37zM114-30c31 0 40-27 40-66 0-37-7-63-39-63s-41 28-41 65c0 36 8 64 40 64" id="bz"/><path fill="#333" d="M25 0v-261h50V0H25" id="bA"/><path fill="#333" d="M147 0L96-86 75-71V0H25v-261h50v150l67-79h53l-66 74L201 0h-54" id="bB"/><path fill="#333" d="M114-157C55-157 80-60 75 0H25v-261h50l-1 109c12-26 28-41 61-42 86-1 58 113 63 194h-50c-7-57 23-157-34-157" id="bC"/><g id="u"><use transform="matrix(0.04999999999999998,0,0,0.04999999999999998,0,0)" xlink:href="#bz"/><use transform="matrix(0.04999999999999998,0,0,0.04999999999999998,10.949999999999996,0)" xlink:href="#bA"/><use transform="matrix(0.04999999999999998,0,0,0.04999999999999998,15.949999999999994,0)" xlink:href="#bw"/><use transform="matrix(0.04999999999999998,0,0,0.04999999999999998,26.89999999999999,0)" xlink:href="#bq"/><use transform="matrix(0.04999999999999998,0,0,0.04999999999999998,36.89999999999999,0)" xlink:href="#bB"/><use transform="matrix(0.04999999999999998,0,0,0.04999999999999998,46.89999999999999,0)" xlink:href="#bq"/><use transform="matrix(0.04999999999999998,0,0,0.04999999999999998,56.89999999999999,0)" xlink:href="#bC"/><use transform="matrix(0.04999999999999998,0,0,0.04999999999999998,67.85,0)" xlink:href="#br"/><use transform="matrix(0.04999999999999998,0,0,0.04999999999999998,77.85,0)" xlink:href="#bp"/><use transform="matrix(0.04999999999999998,0,0,0.04999999999999998,82.85,0)" xlink:href="#by"/></g><path fill="#333" d="M175 0L67-191c6 58 2 128 3 191H24v-248h59L193-55c-6-58-2-129-3-193h46V0h-61" id="bD"/><path fill="#333" d="M121-226c-27-7-43 5-38 36h38v33H83V0H34v-157H6v-33h28c-9-59 32-81 87-68v32" id="bE"/><path fill="#333" d="M123 10C108 53 80 86 19 72V37c35 8 53-11 59-39L3-190h52l48 148c12-52 28-100 44-148h51" id="bF"/><g id="w"><use transform="matrix(0.04938271604938272,0,0,0.04938271604938272,0,0)" xlink:href="#bD"/><use transform="matrix(0.04938271604938272,0,0,0.04938271604938272,12.790123456790125,0)" xlink:href="#bw"/><use transform="matrix(0.04938271604938272,0,0,0.04938271604938272,23.60493827160494,0)" xlink:href="#bo"/><use transform="matrix(0.04938271604938272,0,0,0.04938271604938272,29.481481481481485,0)" xlink:href="#bp"/><use transform="matrix(0.04938271604938272,0,0,0.04938271604938272,34.41975308641976,0)" xlink:href="#bE"/><use transform="matrix(0.04938271604938272,0,0,0.04938271604938272,40.296296296296305,0)" xlink:href="#bF"/></g><path fill="#333" d="M135-194c53 0 70 44 70 98 0 56-19 98-73 100-31 1-45-17-59-34 3 33 2 69 2 105H25l-1-265h48c2 10 0 23 3 31 11-24 29-35 60-35zM114-30c33 0 39-31 40-66 0-38-9-64-40-64-56 0-55 130 0 130" id="bG"/><g id="x"><use transform="matrix(0.04938271604938272,0,0,0.04938271604938272,0,0)" xlink:href="#bt"/><use transform="matrix(0.04938271604938272,0,0,0.04938271604938272,12.790123456790125,0)" xlink:href="#bm"/><use transform="matrix(0.04938271604938272,0,0,0.04938271604938272,22.66666666666667,0)" xlink:href="#bq"/><use transform="matrix(0.04938271604938272,0,0,0.04938271604938272,32.543209876543216,0)" xlink:href="#bp"/><use transform="matrix(0.04938271604938272,0,0,0.04938271604938272,37.48148148148149,0)" xlink:href="#bG"/><use transform="matrix(0.04938271604938272,0,0,0.04938271604938272,48.296296296296305,0)" xlink:href="#bp"/><use transform="matrix(0.04938271604938272,0,0,0.04938271604938272,53.23456790123457,0)" xlink:href="#bm"/><use transform="matrix(0.04938271604938272,0,0,0.04938271604938272,63.111111111111114,0)" xlink:href="#by"/><use transform="matrix(0.04938271604938272,0,0,0.04938271604938272,73.92592592592594,0)" xlink:href="#bo"/></g><g id="y"><use transform="matrix(0.04938271604938272,0,0,0.04938271604938272,0,0)" xlink:href="#bw"/><use transform="matrix(0.04938271604938272,0,0,0.04938271604938272,10.814814814814815,0)" xlink:href="#bE"/></g><path fill="#333" d="M85 4C-2 5 27-109 22-190h50c7 57-23 150 33 157 60-5 35-97 40-157h50l1 190h-47c-2-12 1-28-3-38-12 25-28 42-61 42" id="bH"/><g id="z"><use transform="matrix(0.04938271604938272,0,0,0.04938271604938272,0,0)" xlink:href="#bu"/><use transform="matrix(0.04938271604938272,0,0,0.04938271604938272,4.938271604938272,0)" xlink:href="#bv"/><use transform="matrix(0.04938271604938272,0,0,0.04938271604938272,14.814814814814817,0)" xlink:href="#bv"/><use transform="matrix(0.04938271604938272,0,0,0.04938271604938272,24.69135802469136,0)" xlink:href="#bH"/><use transform="matrix(0.04938271604938272,0,0,0.04938271604938272,35.50617283950618,0)" xlink:href="#bm"/><use transform="matrix(0.04938271604938272,0,0,0.04938271604938272,45.38271604938272,0)" xlink:href="#bx"/></g><g id="A"><use transform="matrix(0.04938271604938272,0,0,0.04938271604938272,0,0)" xlink:href="#bl"/><use transform="matrix(0.04938271604938272,0,0,0.04938271604938272,12.790123456790125,0)" xlink:href="#bm"/><use transform="matrix(0.04938271604938272,0,0,0.04938271604938272,22.66666666666667,0)" xlink:href="#bn"/><use transform="matrix(0.04938271604938272,0,0,0.04938271604938272,29.580246913580254,0)" xlink:href="#bo"/><use transform="matrix(0.04938271604938272,0,0,0.04938271604938272,35.4567901234568,0)" xlink:href="#bp"/><use transform="matrix(0.04938271604938272,0,0,0.04938271604938272,40.39506172839507,0)" xlink:href="#bE"/><use transform="matrix(0.04938271604938272,0,0,0.04938271604938272,46.271604938271615,0)" xlink:href="#bp"/><use transform="matrix(0.04938271604938272,0,0,0.04938271604938272,51.209876543209894,0)" xlink:href="#bq"/><use transform="matrix(0.04938271604938272,0,0,0.04938271604938272,61.08641975308644,0)" xlink:href="#br"/><use transform="matrix(0.04938271604938272,0,0,0.04938271604938272,70.96296296296298,0)" xlink:href="#bo"/><use transform="matrix(0.04938271604938272,0,0,0.04938271604938272,76.83950617283952,0)" xlink:href="#bm"/></g><path fill="#333" d="M169-182c-1-43-94-46-97-3 18 66 151 10 154 114 3 95-165 93-204 36-6-8-10-19-12-30l50-8c3 46 112 56 116 5-17-69-150-10-154-114-4-87 153-88 188-35 5 8 8 18 10 28" id="bI"/><g id="C"><use transform="matrix(0.04999999999999998,0,0,0.04999999999999998,0,0)" xlink:href="#bI"/><use transform="matrix(0.04999999999999998,0,0,0.04999999999999998,11.999999999999996,0)" xlink:href="#bC"/><use transform="matrix(0.04999999999999998,0,0,0.04999999999999998,22.949999999999992,0)" xlink:href="#br"/><use transform="matrix(0.04999999999999998,0,0,0.04999999999999998,32.94999999999999,0)" xlink:href="#bn"/><use transform="matrix(0.04999999999999998,0,0,0.04999999999999998,39.94999999999999,0)" xlink:href="#bm"/><use transform="matrix(0.04999999999999998,0,0,0.04999999999999998,49.94999999999999,0)" xlink:href="#bv"/></g><g id="D"><use transform="matrix(0.04999999999999998,0,0,0.04999999999999998,0,0)" xlink:href="#bl"/><use transform="matrix(0.04999999999999998,0,0,0.04999999999999998,12.949999999999996,0)" xlink:href="#bm"/><use transform="matrix(0.04999999999999998,0,0,0.04999999999999998,22.949999999999992,0)" xlink:href="#bn"/><use transform="matrix(0.04999999999999998,0,0,0.04999999999999998,29.94999999999999,0)" xlink:href="#bo"/><use transform="matrix(0.04999999999999998,0,0,0.04999999999999998,35.899999999999984,0)" xlink:href="#bp"/><use transform="matrix(0.04999999999999998,0,0,0.04999999999999998,40.899999999999984,0)" xlink:href="#bE"/><use transform="matrix(0.04999999999999998,0,0,0.04999999999999998,46.84999999999998,0)" xlink:href="#bp"/><use transform="matrix(0.04999999999999998,0,0,0.04999999999999998,51.84999999999998,0)" xlink:href="#bq"/><use transform="matrix(0.04999999999999998,0,0,0.04999999999999998,61.84999999999998,0)" xlink:href="#br"/><use transform="matrix(0.04999999999999998,0,0,0.04999999999999998,71.84999999999998,0)" xlink:href="#bo"/><use transform="matrix(0.04999999999999998,0,0,0.04999999999999998,77.79999999999998,0)" xlink:href="#bm"/></g><path fill="#333" d="M231 0h-52l-39-155L100 0H48L-1-190h46L77-45c9-52 24-97 36-145h53l37 145 32-145h46" id="bJ"/><g id="E"><use transform="matrix(0.04999999999999998,0,0,0.04999999999999998,0,0)" xlink:href="#bJ"/><use transform="matrix(0.04999999999999998,0,0,0.04999999999999998,13.999999999999995,0)" xlink:href="#bp"/><use transform="matrix(0.04999999999999998,0,0,0.04999999999999998,18.999999999999993,0)" xlink:href="#bo"/><use transform="matrix(0.04999999999999998,0,0,0.04999999999999998,24.94999999999999,0)" xlink:href="#bC"/></g><path fill="#333" d="M220-157c-53 9-28 100-34 157h-49v-107c1-27-5-49-29-50C55-147 81-57 75 0H25l-1-190h47c2 12-1 28 3 38 10-53 101-56 108 0 13-22 24-43 59-42 82 1 51 116 57 194h-49v-107c-1-25-5-48-29-50" id="bK"/><g id="F"><use transform="matrix(0.04999999999999998,0,0,0.04999999999999998,0,0)" xlink:href="#bl"/><use transform="matrix(0.04999999999999998,0,0,0.04999999999999998,12.949999999999996,0)" xlink:href="#bw"/><use transform="matrix(0.04999999999999998,0,0,0.04999999999999998,23.89999999999999,0)" xlink:href="#bK"/><use transform="matrix(0.04999999999999998,0,0,0.04999999999999998,39.899999999999984,0)" xlink:href="#bG"/><use transform="matrix(0.04999999999999998,0,0,0.04999999999999998,50.84999999999998,0)" xlink:href="#br"/><use transform="matrix(0.04999999999999998,0,0,0.04999999999999998,60.84999999999998,0)" xlink:href="#by"/><use transform="matrix(0.04999999999999998,0,0,0.04999999999999998,71.79999999999998,0)" xlink:href="#bp"/><use transform="matrix(0.04999999999999998,0,0,0.04999999999999998,76.79999999999998,0)" xlink:href="#bm"/><use transform="matrix(0.04999999999999998,0,0,0.04999999999999998,86.79999999999998,0)" xlink:href="#bv"/></g><path fill="#333" d="M147 0H94L2-248h55l64 206c17-72 42-137 63-206h54" id="bL"/><g id="G"><use transform="matrix(0.04999999999999998,0,0,0.04999999999999998,0,0)" xlink:href="#bL"/><use transform="matrix(0.04999999999999998,0,0,0.04999999999999998,10.999999999999996,0)" xlink:href="#bm"/><use transform="matrix(0.04999999999999998,0,0,0.04999999999999998,20.999999999999993,0)" xlink:href="#bn"/><use transform="matrix(0.04999999999999998,0,0,0.04999999999999998,27.99999999999999,0)" xlink:href="#bp"/><use transform="matrix(0.04999999999999998,0,0,0.04999999999999998,32.999999999999986,0)" xlink:href="#bE"/><use transform="matrix(0.04999999999999998,0,0,0.04999999999999998,38.94999999999998,0)" xlink:href="#bF"/></g><path fill="#333" d="M182-130c37 4 62 22 62 59C244 23 116-4 24 0v-248c84 5 203-23 205 63 0 31-19 50-47 55zM76-148c40-3 101 13 101-30 0-44-60-28-101-31v61zm0 110c48-3 116 14 116-37 0-48-69-32-116-35v72" id="bM"/><g id="H"><use transform="matrix(0.04999999999999998,0,0,0.04999999999999998,0,0)" xlink:href="#bM"/><use transform="matrix(0.04999999999999998,0,0,0.04999999999999998,12.949999999999996,0)" xlink:href="#bF"/></g><path fill="#333" d="M84 4C32 4 15-41 15-95c0-55 18-99 73-99 29 0 47 12 58 34l2-30h48l-1 265h-49V-32C136-9 114 4 84 4zm21-34c32 0 41-29 41-66 0-36-9-64-40-64-33 0-39 30-40 65 0 43 13 65 39 65" id="bN"/><g id="I"><use transform="matrix(0.04999999999999998,0,0,0.04999999999999998,0,0)" xlink:href="#bs"/><use transform="matrix(0.04999999999999998,0,0,0.04999999999999998,12.949999999999996,0)" xlink:href="#by"/><use transform="matrix(0.04999999999999998,0,0,0.04999999999999998,23.89999999999999,0)" xlink:href="#bp"/><use transform="matrix(0.04999999999999998,0,0,0.04999999999999998,28.899999999999988,0)" xlink:href="#bN"/><use transform="matrix(0.04999999999999998,0,0,0.04999999999999998,39.84999999999999,0)" xlink:href="#bH"/><use transform="matrix(0.04999999999999998,0,0,0.04999999999999998,50.79999999999998,0)" xlink:href="#bm"/></g><path fill="#333" d="M76-208v77h127v40H76V0H24v-248h183v40H76" id="bO"/><path fill="#333" d="M136-208V0H84v-208H4v-40h212v40h-80" id="bP"/><g id="J"><use transform="matrix(0.04999999999999998,0,0,0.04999999999999998,0,0)" xlink:href="#bD"/><use transform="matrix(0.04999999999999998,0,0,0.04999999999999998,12.949999999999996,0)" xlink:href="#bO"/><use transform="matrix(0.04999999999999998,0,0,0.04999999999999998,23.89999999999999,0)" xlink:href="#bP"/></g><g id="K"><use transform="matrix(0.04999999999999998,0,0,0.04999999999999998,0,0)" xlink:href="#bo"/><use transform="matrix(0.04999999999999998,0,0,0.04999999999999998,5.9499999999999975,0)" xlink:href="#bw"/><use transform="matrix(0.04999999999999998,0,0,0.04999999999999998,16.89999999999999,0)" xlink:href="#bB"/><use transform="matrix(0.04999999999999998,0,0,0.04999999999999998,26.89999999999999,0)" xlink:href="#bm"/><use transform="matrix(0.04999999999999998,0,0,0.04999999999999998,36.899999999999984,0)" xlink:href="#by"/></g><path fill="#333" d="M24-248c120-7 223 5 221 122C244-46 201 0 124 0H24v-248zM76-40c74 7 117-18 117-86 0-67-45-88-117-82v168" id="bQ"/><g id="L"><use transform="matrix(0.04999999999999998,0,0,0.04999999999999998,0,0)" xlink:href="#bu"/><use transform="matrix(0.04999999999999998,0,0,0.04999999999999998,4.999999999999998,0)" xlink:href="#bQ"/></g><g id="M"><use transform="matrix(0.04999999999999998,0,0,0.04999999999999998,0,0)" xlink:href="#bt"/><use transform="matrix(0.04999999999999998,0,0,0.04999999999999998,12.949999999999996,0)" xlink:href="#bm"/><use transform="matrix(0.04999999999999998,0,0,0.04999999999999998,22.949999999999992,0)" xlink:href="#bo"/><use transform="matrix(0.04999999999999998,0,0,0.04999999999999998,28.899999999999988,0)" xlink:href="#bH"/><use transform="matrix(0.04999999999999998,0,0,0.04999999999999998,39.84999999999999,0)" xlink:href="#bn"/><use transform="matrix(0.04999999999999998,0,0,0.04999999999999998,46.84999999999999,0)" xlink:href="#by"/></g><g id="N"><use transform="matrix(0.04999999999999998,0,0,0.04999999999999998,0,0)" xlink:href="#bs"/><use transform="matrix(0.04999999999999998,0,0,0.04999999999999998,12.949999999999996,0)" xlink:href="#by"/><use transform="matrix(0.04999999999999998,0,0,0.04999999999999998,23.89999999999999,0)" xlink:href="#bp"/><use transform="matrix(0.04999999999999998,0,0,0.04999999999999998,28.899999999999988,0)" xlink:href="#bN"/><use transform="matrix(0.04999999999999998,0,0,0.04999999999999998,39.84999999999999,0)" xlink:href="#bH"/><use transform="matrix(0.04999999999999998,0,0,0.04999999999999998,50.79999999999998,0)" xlink:href="#bm"/></g><g id="O"><use transform="matrix(0.04999999999999998,0,0,0.04999999999999998,0,0)" xlink:href="#bs"/><use transform="matrix(0.04999999999999998,0,0,0.04999999999999998,12.949999999999996,0)" xlink:href="#bt"/><use transform="matrix(0.04999999999999998,0,0,0.04999999999999998,25.89999999999999,0)" xlink:href="#bu"/></g><path fill="#333" d="M24 0v-248h195v40H76v63h132v40H76v65h150V0H24" id="bR"/><g id="P"><use transform="matrix(0.04999999999999998,0,0,0.04999999999999998,0,0)" xlink:href="#bR"/><use transform="matrix(0.04999999999999998,0,0,0.04999999999999998,11.999999999999996,0)" xlink:href="#by"/><use transform="matrix(0.04999999999999998,0,0,0.04999999999999998,22.949999999999992,0)" xlink:href="#bo"/><use transform="matrix(0.04999999999999998,0,0,0.04999999999999998,28.899999999999988,0)" xlink:href="#bp"/><use transform="matrix(0.04999999999999998,0,0,0.04999999999999998,33.89999999999999,0)" xlink:href="#bn"/><use transform="matrix(0.04999999999999998,0,0,0.04999999999999998,40.89999999999999,0)" xlink:href="#bm"/></g><g id="Q"><use transform="matrix(0.04999999999999998,0,0,0.04999999999999998,0,0)" xlink:href="#bx"/><use transform="matrix(0.04999999999999998,0,0,0.04999999999999998,10.949999999999996,0)" xlink:href="#br"/><use transform="matrix(0.04999999999999998,0,0,0.04999999999999998,20.949999999999992,0)" xlink:href="#bo"/><use transform="matrix(0.04999999999999998,0,0,0.04999999999999998,26.89999999999999,0)" xlink:href="#br"/></g><path fill="#333" d="M24-248c93 1 206-16 204 79-1 75-69 88-152 82V0H24v-248zm52 121c47 0 100 7 100-41 0-47-54-39-100-39v80" id="bS"/><g id="R"><use transform="matrix(0.04999999999999998,0,0,0.04999999999999998,0,0)" xlink:href="#bu"/><use transform="matrix(0.04999999999999998,0,0,0.04999999999999998,4.999999999999998,0)" xlink:href="#bS"/><use transform="matrix(0.04999999999999998,0,0,0.04999999999999998,16.999999999999993,0)" xlink:href="#bO"/><use transform="matrix(0.04999999999999998,0,0,0.04999999999999998,27.94999999999999,0)" xlink:href="#bI"/></g><g id="S"><use transform="matrix(0.06172839506172839,0,0,0.06172839506172839,0,0)" xlink:href="#bd"/><use transform="matrix(0.06172839506172839,0,0,0.06172839506172839,14.814814814814813,0)" xlink:href="#aM"/><use transform="matrix(0.06172839506172839,0,0,0.06172839506172839,33.2716049382716,0)" xlink:href="#aO"/><use transform="matrix(0.06172839506172839,0,0,0.06172839506172839,45.61728395061728,0)" xlink:href="#aT"/><use transform="matrix(0.06172839506172839,0,0,0.06172839506172839,52.962962962962955,0)" xlink:href="#aX"/></g><path fill="#3a414a" d="M96-169c-40 0-48 33-48 73s9 75 48 75c24 0 41-14 43-38l32 2c-6 37-31 61-74 61-59 0-76-41-82-99-10-93 101-131 147-64 4 7 5 14 7 22l-32 3c-4-21-16-35-41-35" id="bT"/><g id="T"><use transform="matrix(0.06172839506172839,0,0,0.06172839506172839,0,0)" xlink:href="#aK"/><use transform="matrix(0.06172839506172839,0,0,0.06172839506172839,15.987654320987653,0)" xlink:href="#aL"/><use transform="matrix(0.06172839506172839,0,0,0.06172839506172839,28.333333333333332,0)" xlink:href="#aP"/><use transform="matrix(0.06172839506172839,0,0,0.06172839506172839,40.67901234567901,0)" xlink:href="#aX"/><use transform="matrix(0.06172839506172839,0,0,0.06172839506172839,46.851851851851855,0)" xlink:href="#aT"/><use transform="matrix(0.06172839506172839,0,0,0.06172839506172839,54.19753086419753,0)" xlink:href="#aO"/><use transform="matrix(0.06172839506172839,0,0,0.06172839506172839,66.54320987654322,0)" xlink:href="#bT"/><use transform="matrix(0.06172839506172839,0,0,0.06172839506172839,77.65432098765433,0)" xlink:href="#aX"/></g><path fill="#333" d="M230 0l2-204L168 0h-37L68-204 70 0H24v-248h70l56 185 57-185h69V0h-46" id="bU"/><g id="U"><use transform="matrix(0.04938271604938272,0,0,0.04938271604938272,0,0)" xlink:href="#bU"/><use transform="matrix(0.04938271604938272,0,0,0.04938271604938272,14.765432098765434,0)" xlink:href="#bp"/><use transform="matrix(0.04938271604938272,0,0,0.04938271604938272,19.703703703703706,0)" xlink:href="#by"/><use transform="matrix(0.04938271604938272,0,0,0.04938271604938272,30.518518518518523,0)" xlink:href="#bo"/></g><g id="V"><use transform="matrix(0.04938271604938272,0,0,0.04938271604938272,0,0)" xlink:href="#bs"/><use transform="matrix(0.04938271604938272,0,0,0.04938271604938272,12.790123456790125,0)" xlink:href="#by"/><use transform="matrix(0.04938271604938272,0,0,0.04938271604938272,23.60493827160494,0)" xlink:href="#bp"/><use transform="matrix(0.04938271604938272,0,0,0.04938271604938272,28.543209876543212,0)" xlink:href="#bN"/><use transform="matrix(0.04938271604938272,0,0,0.04938271604938272,39.358024691358025,0)" xlink:href="#bH"/><use transform="matrix(0.04938271604938272,0,0,0.04938271604938272,50.17283950617284,0)" xlink:href="#bm"/></g><g id="W"><use transform="matrix(0.04938271604938272,0,0,0.04938271604938272,0,0)" xlink:href="#bD"/><use transform="matrix(0.04938271604938272,0,0,0.04938271604938272,12.790123456790125,0)" xlink:href="#bE"/><use transform="matrix(0.04938271604938272,0,0,0.04938271604938272,18.666666666666668,0)" xlink:href="#bo"/></g><path fill="#333" d="M76-54c-1 42 2 86-19 110H24C36 42 46 24 48 0H25v-54h51" id="bV"/><g id="X"><use transform="matrix(0.04938271604938272,0,0,0.04938271604938272,0,0)" xlink:href="#bl"/><use transform="matrix(0.04938271604938272,0,0,0.04938271604938272,12.790123456790125,0)" xlink:href="#bm"/><use transform="matrix(0.04938271604938272,0,0,0.04938271604938272,22.66666666666667,0)" xlink:href="#bn"/><use transform="matrix(0.04938271604938272,0,0,0.04938271604938272,29.580246913580254,0)" xlink:href="#bo"/><use transform="matrix(0.04938271604938272,0,0,0.04938271604938272,35.4567901234568,0)" xlink:href="#bp"/><use transform="matrix(0.04938271604938272,0,0,0.04938271604938272,40.39506172839507,0)" xlink:href="#bE"/><use transform="matrix(0.04938271604938272,0,0,0.04938271604938272,46.271604938271615,0)" xlink:href="#bp"/><use transform="matrix(0.04938271604938272,0,0,0.04938271604938272,51.209876543209894,0)" xlink:href="#bq"/><use transform="matrix(0.04938271604938272,0,0,0.04938271604938272,61.08641975308644,0)" xlink:href="#br"/><use transform="matrix(0.04938271604938272,0,0,0.04938271604938272,70.96296296296298,0)" xlink:href="#bo"/><use transform="matrix(0.04938271604938272,0,0,0.04938271604938272,76.83950617283952,0)" xlink:href="#bm"/><use transform="matrix(0.04938271604938272,0,0,0.04938271604938272,86.71604938271606,0)" xlink:href="#bV"/></g><path fill="#333" d="M195-6C206 82 75 100 31 46c-4-6-6-13-8-21l49-6c3 16 16 24 34 25 40 0 42-37 40-79-11 22-30 35-61 35-53 0-70-43-70-97 0-56 18-96 73-97 30 0 46 14 59 34l2-30h47zm-90-29c32 0 41-27 41-63 0-35-9-62-40-62-32 0-39 29-40 63 0 36 9 62 39 62" id="bW"/><g id="Y"><use transform="matrix(0.04938271604938272,0,0,0.04938271604938272,0,0)" xlink:href="#bl"/><use transform="matrix(0.04938271604938272,0,0,0.04938271604938272,12.790123456790125,0)" xlink:href="#bn"/><use transform="matrix(0.04938271604938272,0,0,0.04938271604938272,19.703703703703706,0)" xlink:href="#bm"/><use transform="matrix(0.04938271604938272,0,0,0.04938271604938272,29.58024691358025,0)" xlink:href="#br"/><use transform="matrix(0.04938271604938272,0,0,0.04938271604938272,39.4567901234568,0)" xlink:href="#bo"/><use transform="matrix(0.04938271604938272,0,0,0.04938271604938272,45.33333333333334,0)" xlink:href="#bp"/><use transform="matrix(0.04938271604938272,0,0,0.04938271604938272,50.271604938271615,0)" xlink:href="#by"/><use transform="matrix(0.04938271604938272,0,0,0.04938271604938272,61.08641975308644,0)" xlink:href="#bW"/></g><use transform="matrix(0.04938271604938272,0,0,0.04938271604938272,0,0)" xlink:href="#br" id="Z"/><g id="aa"><use transform="matrix(0.04938271604938272,0,0,0.04938271604938272,0,0)" xlink:href="#bs"/><use transform="matrix(0.04938271604938272,0,0,0.04938271604938272,12.790123456790125,0)" xlink:href="#by"/><use transform="matrix(0.04938271604938272,0,0,0.04938271604938272,23.60493827160494,0)" xlink:href="#bp"/><use transform="matrix(0.04938271604938272,0,0,0.04938271604938272,28.543209876543212,0)" xlink:href="#bN"/><use transform="matrix(0.04938271604938272,0,0,0.04938271604938272,39.358024691358025,0)" xlink:href="#bH"/><use transform="matrix(0.04938271604938272,0,0,0.04938271604938272,50.17283950617284,0)" xlink:href="#bm"/></g><g id="ab"><use transform="matrix(0.04938271604938272,0,0,0.04938271604938272,0,0)" xlink:href="#bP"/><use transform="matrix(0.04938271604938272,0,0,0.04938271604938272,9.481481481481481,0)" xlink:href="#bw"/><use transform="matrix(0.04938271604938272,0,0,0.04938271604938272,20.296296296296298,0)" xlink:href="#bB"/><use transform="matrix(0.04938271604938272,0,0,0.04938271604938272,30.172839506172842,0)" xlink:href="#bm"/><use transform="matrix(0.04938271604938272,0,0,0.04938271604938272,40.04938271604939,0)" xlink:href="#by"/></g><g id="ac"><use transform="matrix(0.04938271604938272,0,0,0.04938271604938272,0,0)" xlink:href="#bw"/><use transform="matrix(0.04938271604938272,0,0,0.04938271604938272,10.814814814814815,0)" xlink:href="#by"/></g><g id="ad"><use transform="matrix(0.04938271604938272,0,0,0.04938271604938272,0,0)" xlink:href="#bM"/><use transform="matrix(0.04938271604938272,0,0,0.04938271604938272,12.790123456790125,0)" xlink:href="#bA"/><use transform="matrix(0.04938271604938272,0,0,0.04938271604938272,17.7283950617284,0)" xlink:href="#bw"/><use transform="matrix(0.04938271604938272,0,0,0.04938271604938272,28.54320987654322,0)" xlink:href="#bq"/><use transform="matrix(0.04938271604938272,0,0,0.04938271604938272,38.41975308641976,0)" xlink:href="#bB"/><use transform="matrix(0.04938271604938272,0,0,0.04938271604938272,48.296296296296305,0)" xlink:href="#bq"/><use transform="matrix(0.04938271604938272,0,0,0.04938271604938272,58.17283950617284,0)" xlink:href="#bC"/><use transform="matrix(0.04938271604938272,0,0,0.04938271604938272,68.98765432098766,0)" xlink:href="#br"/><use transform="matrix(0.04938271604938272,0,0,0.04938271604938272,78.8641975308642,0)" xlink:href="#bp"/><use transform="matrix(0.04938271604938272,0,0,0.04938271604938272,83.80246913580248,0)" xlink:href="#by"/></g><path fill="#333" d="M199 0l-22-63H83L61 0H9l90-248h61L250 0h-51zm-33-102l-36-108c-10 38-24 72-36 108h72" id="bX"/><path fill="#333" d="M128 0H69L1-190h53L99-40l48-150h52" id="bY"/><g id="ae"><use transform="matrix(0.04938271604938272,0,0,0.04938271604938272,0,0)" xlink:href="#bX"/><use transform="matrix(0.04938271604938272,0,0,0.04938271604938272,12.14814814814815,0)" xlink:href="#bY"/><use transform="matrix(0.04938271604938272,0,0,0.04938271604938272,22.024691358024697,0)" xlink:href="#br"/><use transform="matrix(0.04938271604938272,0,0,0.04938271604938272,31.90123456790124,0)" xlink:href="#bp"/><use transform="matrix(0.04938271604938272,0,0,0.04938271604938272,36.83950617283951,0)" xlink:href="#bA"/></g><g id="af"><use transform="matrix(0.04938271604938272,0,0,0.04938271604938272,0,0)" xlink:href="#bS"/><use transform="matrix(0.04938271604938272,0,0,0.04938271604938272,11.851851851851853,0)" xlink:href="#bn"/><use transform="matrix(0.04938271604938272,0,0,0.04938271604938272,18.765432098765434,0)" xlink:href="#bw"/><use transform="matrix(0.04938271604938272,0,0,0.04938271604938272,29.58024691358025,0)" xlink:href="#bW"/><use transform="matrix(0.04938271604938272,0,0,0.04938271604938272,40.39506172839506,0)" xlink:href="#bn"/><use transform="matrix(0.04938271604938272,0,0,0.04938271604938272,47.308641975308646,0)" xlink:href="#br"/><use transform="matrix(0.04938271604938272,0,0,0.04938271604938272,57.18518518518519,0)" xlink:href="#bK"/></g><g id="ag"><use transform="matrix(0.04938271604938272,0,0,0.04938271604938272,0,0)" xlink:href="#bE"/><use transform="matrix(0.04938271604938272,0,0,0.04938271604938272,5.8765432098765435,0)" xlink:href="#bw"/><use transform="matrix(0.04938271604938272,0,0,0.04938271604938272,16.691358024691358,0)" xlink:href="#bn"/></g><g id="ah"><use transform="matrix(0.04938271604938272,0,0,0.04938271604938272,0,0)" xlink:href="#bl"/><use transform="matrix(0.04938271604938272,0,0,0.04938271604938272,12.790123456790125,0)" xlink:href="#bm"/><use transform="matrix(0.04938271604938272,0,0,0.04938271604938272,22.66666666666667,0)" xlink:href="#bn"/><use transform="matrix(0.04938271604938272,0,0,0.04938271604938272,29.580246913580254,0)" xlink:href="#bo"/><use transform="matrix(0.04938271604938272,0,0,0.04938271604938272,35.4567901234568,0)" xlink:href="#bp"/><use transform="matrix(0.04938271604938272,0,0,0.04938271604938272,40.39506172839507,0)" xlink:href="#bE"/><use transform="matrix(0.04938271604938272,0,0,0.04938271604938272,46.271604938271615,0)" xlink:href="#bp"/><use transform="matrix(0.04938271604938272,0,0,0.04938271604938272,51.209876543209894,0)" xlink:href="#bq"/><use transform="matrix(0.04938271604938272,0,0,0.04938271604938272,61.08641975308644,0)" xlink:href="#br"/><use transform="matrix(0.04938271604938272,0,0,0.04938271604938272,70.96296296296298,0)" xlink:href="#bo"/><use transform="matrix(0.04938271604938272,0,0,0.04938271604938272,76.83950617283952,0)" xlink:href="#bp"/><use transform="matrix(0.04938271604938272,0,0,0.04938271604938272,81.7777777777778,0)" xlink:href="#bw"/><use transform="matrix(0.04938271604938272,0,0,0.04938271604938272,92.59259259259261,0)" xlink:href="#by"/></g><g id="ai"><use transform="matrix(0.04938271604938272,0,0,0.04938271604938272,0,0)" xlink:href="#bu"/><use transform="matrix(0.04938271604938272,0,0,0.04938271604938272,4.938271604938272,0)" xlink:href="#by"/><use transform="matrix(0.04938271604938272,0,0,0.04938271604938272,15.753086419753087,0)" xlink:href="#bG"/><use transform="matrix(0.04938271604938272,0,0,0.04938271604938272,26.567901234567902,0)" xlink:href="#bH"/><use transform="matrix(0.04938271604938272,0,0,0.04938271604938272,37.382716049382715,0)" xlink:href="#bo"/></g><g id="aj"><use transform="matrix(0.04938271604938272,0,0,0.04938271604938272,0,0)" xlink:href="#bl"/><use transform="matrix(0.04938271604938272,0,0,0.04938271604938272,12.790123456790125,0)" xlink:href="#bm"/><use transform="matrix(0.04938271604938272,0,0,0.04938271604938272,22.66666666666667,0)" xlink:href="#bn"/><use transform="matrix(0.04938271604938272,0,0,0.04938271604938272,29.580246913580254,0)" xlink:href="#bo"/><use transform="matrix(0.04938271604938272,0,0,0.04938271604938272,35.4567901234568,0)" xlink:href="#bp"/><use transform="matrix(0.04938271604938272,0,0,0.04938271604938272,40.39506172839507,0)" xlink:href="#bE"/><use transform="matrix(0.04938271604938272,0,0,0.04938271604938272,46.271604938271615,0)" xlink:href="#bp"/><use transform="matrix(0.04938271604938272,0,0,0.04938271604938272,51.209876543209894,0)" xlink:href="#bq"/><use transform="matrix(0.04938271604938272,0,0,0.04938271604938272,61.08641975308644,0)" xlink:href="#br"/><use transform="matrix(0.04938271604938272,0,0,0.04938271604938272,70.96296296296298,0)" xlink:href="#bo"/><use transform="matrix(0.04938271604938272,0,0,0.04938271604938272,76.83950617283952,0)" xlink:href="#bm"/></g><g id="ak"><use transform="matrix(0.04938271604938272,0,0,0.04938271604938272,0,0)" xlink:href="#bQ"/><use transform="matrix(0.04938271604938272,0,0,0.04938271604938272,12.790123456790125,0)" xlink:href="#br"/><use transform="matrix(0.04938271604938272,0,0,0.04938271604938272,22.66666666666667,0)" xlink:href="#bo"/><use transform="matrix(0.04938271604938272,0,0,0.04938271604938272,28.54320987654322,0)" xlink:href="#br"/></g></defs></g></svg>